<!DOCTYPE svg PUBLIC "-//W3C//DTD SVG 20010904//EN" "http://www.w3.org/TR/2001/REC-SVG-20010904/DTD/svg10.dtd">
<svg version="1.0" xmlns="http://www.w3.org/2000/svg" width="924px" height="928px" viewBox="0 0 9240 9280" preserveAspectRatio="xMidYMid meet">
<g id="layer101" fill="#131313" stroke="none">
 <path d="M1700 7695 l0 -615 2895 0 2895 0 0 615 0 615 -2895 0 -2895 0 0 -615z m5770 0 l0 -595 -2875 0 -2875 0 0 595 0 595 2875 0 2875 0 0 -595z"/>
 <path d="M2350 8165 c0 -9 11 -43 25 -77 14 -34 25 -68 25 -75 0 -8 9 -32 20 -53 20 -40 41 -49 68 -31 12 7 92 220 92 244 0 4 -14 7 -30 7 -23 0 -33 -6 -40 -25 -8 -20 -16 -25 -45 -25 -28 0 -38 5 -47 25 -13 29 -68 37 -68 10z m140 -89 c0 -1 -5 -18 -11 -36 -12 -34 -19 -30 -33 18 -6 19 -4 22 18 22 14 0 26 -2 26 -4z"/>
 <path d="M2600 8080 l0 -100 -36 0 c-33 0 -35 -2 -32 -27 l3 -28 95 0 c95 0 95 0 95 25 0 21 -5 26 -32 28 l-33 3 0 100 0 99 -30 0 -30 0 0 -100z"/>
 <path d="M2718 8158 c-15 -15 -18 -28 -14 -51 4 -18 6 -49 6 -69 -1 -40 19 -58 64 -58 42 0 56 10 56 41 0 36 -34 41 -44 7 -4 -19 -8 -20 -18 -10 -11 11 -6 20 27 50 38 35 40 36 43 14 2 -14 10 -22 23 -22 14 0 19 7 19 29 0 35 9 61 21 61 5 0 9 -38 9 -85 l0 -85 -30 0 c-27 0 -30 -3 -30 -31 l0 -30 93 3 92 3 3 28 c3 24 0 27 -27 27 l-31 0 0 99 0 98 -121 1 c-108 1 -122 -1 -141 -20z m72 -27 c0 -5 -7 -12 -16 -15 -24 -9 -28 -7 -14 9 14 17 30 20 30 6z"/>
 <path d="M4457 7880 c-14 -20 -13 -24 3 -40 24 -24 50 -111 50 -165 0 -56 -24 -132 -50 -160 l-20 -22 21 -19 c21 -19 21 -19 49 14 78 94 71 313 -13 390 l-25 23 -15 -21z"/>
 <path d="M3479 7859 c-69 -97 -66 -283 6 -366 32 -37 33 -38 53 -20 20 18 20 18 -3 41 -60 61 -60 260 0 326 15 16 15 22 5 35 -19 23 -36 18 -61 -16z"/>
 <path d="M3666 7818 c-16 -6 -39 -16 -51 -22 l-23 -12 25 -32 c26 -34 43 -41 43 -18 0 17 22 26 66 26 48 0 74 -16 74 -45 0 -37 -31 -48 -111 -40 l-69 7 0 -91 0 -91 115 0 115 0 0 42 c0 33 -3 39 -12 30 -7 -7 -40 -12 -80 -12 -68 0 -68 0 -68 28 0 27 1 27 55 24 52 -4 57 -2 91 32 33 33 36 41 31 77 -3 22 -14 50 -24 61 -38 43 -114 59 -177 36z"/>
 <path d="M4185 7816 c-102 -44 -126 -183 -46 -269 34 -36 44 -41 93 -45 126 -10 203 87 169 214 -24 88 -131 137 -216 100z m110 -62 c46 -18 59 -112 21 -159 -20 -24 -31 -30 -66 -30 -34 0 -47 6 -66 28 -34 39 -33 108 1 142 24 25 73 33 110 19z"/>
 <path d="M4826 7815 c-22 -8 -43 -12 -48 -9 -14 9 -9 -6 19 -47 17 -26 29 -36 32 -28 6 21 23 29 63 29 50 0 66 -8 83 -41 21 -39 20 -39 -24 -22 -54 21 -121 11 -155 -24 -39 -38 -36 -99 5 -139 28 -27 36 -29 104 -29 82 0 107 14 131 72 37 88 4 197 -71 233 -48 23 -85 25 -139 5z m135 -184 c20 -16 22 -23 13 -38 -28 -46 -134 -37 -134 11 0 46 77 63 121 27z"/>
 <path d="M5524 7819 c-96 -28 -134 -163 -73 -254 29 -42 73 -65 127 -65 82 0 132 35 152 105 27 96 -16 189 -98 213 -45 14 -64 14 -108 1z m102 -67 c48 -33 58 -114 20 -159 -19 -22 -32 -28 -66 -28 -57 0 -90 37 -90 101 0 59 32 94 87 94 21 0 43 -4 49 -8z"/>
 <path d="M6040 7808 c-55 -28 -80 -73 -80 -143 1 -126 122 -203 236 -149 73 35 103 157 58 235 -22 39 -93 79 -139 79 -17 0 -51 -10 -75 -22z m138 -70 c61 -66 19 -178 -67 -178 -12 0 -35 12 -52 28 -26 23 -31 35 -31 76 -1 42 3 53 26 73 36 31 95 31 124 1z"/>
 <path d="M6583 7810 c-56 -25 -83 -70 -83 -138 0 -68 19 -113 61 -143 28 -20 46 -24 101 -24 65 0 69 2 105 37 35 35 38 42 41 107 5 87 -19 133 -82 162 -52 24 -90 23 -143 -1z m137 -74 c44 -48 26 -143 -31 -166 -95 -40 -168 88 -96 168 29 32 95 31 127 -2z"/>
 <path d="M3958 7808 c8 -8 12 -51 12 -125 0 -109 -1 -113 -19 -103 -29 15 -37 13 -49 -14 -10 -23 -8 -25 45 -45 97 -37 93 -42 93 123 0 79 3 151 6 160 5 13 -3 16 -47 16 -41 0 -50 -3 -41 -12z"/>
 <path d="M5258 7808 c7 -7 12 -20 12 -30 0 -16 -10 -18 -90 -18 -80 0 -90 -2 -100 -20 -10 -18 1 -33 92 -130 92 -98 107 -109 138 -110 l35 0 -3 101 -4 102 26 -7 c25 -6 26 -5 26 41 0 37 -3 44 -12 35 -23 -23 -41 -14 -36 18 5 30 4 30 -46 30 -39 0 -47 -3 -38 -12z m12 -160 c0 -30 -4 -48 -9 -42 -4 5 -25 28 -46 52 l-37 42 46 0 46 0 0 -52z"/>
 <path d="M6368 7699 l3 -121 -26 6 c-22 6 -28 3 -33 -16 -8 -31 -9 -29 45 -50 86 -33 83 -38 83 130 0 102 4 152 12 160 9 9 1 12 -37 12 l-50 0 3 -121z"/>
 <path d="M6855 7791 l-15 -30 62 -37 c80 -49 138 -101 138 -125 0 -43 -106 -51 -117 -8 -7 25 -11 24 -53 -11 -24 -22 -29 -30 -17 -30 9 0 17 -4 17 -9 0 -15 78 -41 121 -41 46 0 94 22 109 49 29 55 -2 121 -80 172 l-53 34 68 3 c55 2 70 0 81 -15 12 -16 13 -13 14 30 l0 47 -130 0 -129 0 -16 -29z"/>
 <path d="M5770 7700 c0 -18 7 -20 75 -20 68 0 75 2 75 20 0 18 -7 20 -75 20 -68 0 -75 -2 -75 -20z"/>
 <path d="M1700 6065 l0 -615 2895 0 2895 0 0 615 0 615 -2895 0 -2895 0 0 -615z m5770 0 l0 -595 -2875 0 -2875 0 0 595 0 595 2875 0 2875 0 0 -595z"/>
 <path d="M2140 6360 c-50 -9 -78 -26 -95 -60 -35 -67 -5 -137 70 -165 40 -16 53 -16 100 -6 67 15 82 30 58 60 -17 21 -20 21 -60 7 -68 -24 -113 -4 -113 49 0 56 53 77 115 45 42 -21 65 -14 65 21 0 33 -77 60 -140 49z"/>
 <path d="M2358 6339 c-45 -23 -58 -45 -58 -98 0 -111 153 -160 237 -76 103 103 -44 246 -179 174z m135 -57 c40 -35 4 -102 -56 -102 -45 0 -77 25 -77 59 0 61 81 88 133 43z"/>
 <path d="M2608 6240 c-2 -61 1 -114 5 -117 4 -3 47 -5 95 -4 85 0 88 0 116 32 25 29 28 37 24 86 -4 42 -11 60 -31 81 -24 23 -35 26 -116 30 l-90 4 -3 -112z m170 23 c27 -37 6 -80 -45 -89 -42 -8 -63 11 -63 57 0 53 9 62 54 55 23 -4 47 -14 54 -23z"/>
 <path d="M2905 6342 c-5 -4 -11 -55 -12 -113 -3 -125 -10 -119 125 -119 66 0 84 3 89 16 10 26 -14 38 -82 42 -88 6 -85 24 5 34 17 2 25 9 25 23 0 14 -8 21 -25 23 -93 10 -94 32 -2 32 84 0 100 9 84 44 -11 25 -14 26 -104 26 -51 0 -97 -4 -103 -8z"/>
 <path d="M4477 6240 c-14 -20 -13 -24 3 -40 24 -24 50 -111 50 -165 0 -56 -24 -132 -50 -160 l-20 -22 21 -19 c21 -19 21 -19 49 14 78 94 71 313 -13 390 l-25 23 -15 -21z"/>
 <path d="M3499 6219 c-69 -97 -66 -283 6 -366 32 -37 33 -38 53 -20 20 18 20 18 -3 41 -60 61 -60 260 0 326 15 16 15 22 5 35 -19 23 -36 18 -61 -16z"/>
 <path d="M3686 6178 c-16 -6 -39 -16 -51 -22 l-23 -12 25 -32 c26 -34 43 -41 43 -18 0 17 22 26 66 26 48 0 74 -16 74 -45 0 -37 -31 -48 -111 -40 l-69 7 0 -91 0 -91 115 0 115 0 0 42 c0 33 -3 39 -12 30 -7 -7 -40 -12 -80 -12 -68 0 -68 0 -68 28 0 27 1 27 55 24 52 -4 57 -2 91 32 33 33 36 41 31 77 -3 22 -14 50 -24 61 -38 43 -114 59 -177 36z"/>
 <path d="M4205 6176 c-102 -44 -126 -183 -46 -269 34 -36 44 -41 93 -45 126 -10 203 87 169 214 -24 88 -131 137 -216 100z m110 -62 c46 -18 59 -112 21 -159 -20 -24 -31 -30 -66 -30 -34 0 -47 6 -66 28 -34 39 -33 108 1 142 24 25 73 33 110 19z"/>
 <path d="M4846 6175 c-22 -8 -43 -12 -48 -9 -14 9 -9 -6 19 -47 17 -26 29 -36 32 -28 6 21 23 29 63 29 50 0 66 -8 83 -41 21 -39 20 -39 -24 -22 -54 21 -121 11 -155 -24 -39 -38 -36 -99 5 -139 28 -27 36 -29 104 -29 82 0 107 14 131 72 37 88 4 197 -71 233 -48 23 -85 25 -139 5z m135 -184 c20 -16 22 -23 13 -38 -28 -46 -134 -37 -134 11 0 46 77 63 121 27z"/>
 <path d="M5544 6179 c-96 -28 -134 -163 -73 -254 29 -42 73 -65 127 -65 82 0 132 35 152 105 27 96 -16 189 -98 213 -45 14 -64 14 -108 1z m102 -67 c48 -33 58 -114 20 -159 -19 -22 -32 -28 -66 -28 -57 0 -90 37 -90 101 0 59 32 94 87 94 21 0 43 -4 49 -8z"/>
 <path d="M6060 6168 c-55 -28 -80 -73 -80 -143 1 -126 122 -203 236 -149 73 35 103 157 58 235 -22 39 -93 79 -139 79 -17 0 -51 -10 -75 -22z m138 -70 c61 -66 19 -178 -67 -178 -12 0 -35 12 -52 28 -26 23 -31 35 -31 76 -1 42 3 53 26 73 36 31 95 31 124 1z"/>
 <path d="M6603 6170 c-56 -25 -83 -70 -83 -138 0 -68 19 -113 61 -143 28 -20 46 -24 101 -24 65 0 69 2 105 37 35 35 38 42 41 107 5 87 -19 133 -82 162 -52 24 -90 23 -143 -1z m137 -74 c44 -48 26 -143 -31 -166 -95 -40 -168 88 -96 168 29 32 95 31 127 -2z"/>
 <path d="M3978 6168 c8 -8 12 -51 12 -125 0 -109 -1 -113 -19 -103 -29 15 -37 13 -49 -14 -10 -23 -8 -25 45 -45 97 -37 93 -42 93 123 0 79 3 151 6 160 5 13 -3 16 -47 16 -41 0 -50 -3 -41 -12z"/>
 <path d="M5278 6168 c7 -7 12 -20 12 -30 0 -16 -10 -18 -90 -18 -80 0 -90 -2 -100 -20 -10 -18 1 -33 92 -130 92 -98 107 -109 138 -110 l35 0 -3 101 -4 102 26 -7 c25 -6 26 -5 26 41 0 37 -3 44 -12 35 -23 -23 -41 -14 -36 18 5 30 4 30 -46 30 -39 0 -47 -3 -38 -12z m12 -160 c0 -30 -4 -48 -9 -42 -4 5 -25 28 -46 52 l-37 42 46 0 46 0 0 -52z"/>
 <path d="M6388 6059 l3 -121 -26 6 c-22 6 -28 3 -33 -16 -8 -31 -9 -29 45 -50 86 -33 83 -38 83 130 0 102 4 152 12 160 9 9 1 12 -37 12 l-50 0 3 -121z"/>
 <path d="M6875 6151 l-15 -30 62 -37 c80 -49 138 -101 138 -125 0 -43 -106 -51 -117 -8 -7 25 -11 24 -53 -11 -24 -22 -29 -30 -17 -30 9 0 17 -4 17 -9 0 -15 78 -41 121 -41 46 0 94 22 109 49 29 55 -2 121 -80 172 l-53 34 68 3 c55 2 70 0 81 -15 12 -16 13 -13 14 30 l0 47 -130 0 -129 0 -16 -29z"/>
 <path d="M5790 6060 c0 -18 7 -20 75 -20 68 0 75 2 75 20 0 18 -7 20 -75 20 -68 0 -75 -2 -75 -20z"/>
 <path d="M2237 6022 c-10 -2 -22 -15 -27 -28 -8 -20 -16 -24 -55 -24 -39 0 -47 3 -55 25 -7 18 -17 25 -36 25 -33 0 -31 -11 24 -135 38 -86 41 -90 71 -90 30 0 33 4 65 82 19 44 41 92 50 104 9 13 16 26 16 30 0 9 -31 16 -53 11z"/>
 <path d="M2330 6018 c-1 -2 -2 -46 -4 -98 -2 -52 -5 -102 -7 -110 -3 -12 13 -15 97 -18 90 -2 102 -1 118 17 25 28 23 67 -4 96 l-23 25 26 37 c30 42 27 53 -14 53 -22 0 -34 -8 -49 -32 -28 -48 -38 -58 -61 -58 -18 0 -20 5 -17 43 3 41 2 42 -30 45 -17 2 -32 2 -32 0z m158 -155 c2 -9 -11 -13 -47 -13 -48 0 -68 9 -54 24 12 12 96 2 101 -11z"/>
 <path d="M2622 6007 c-5 -7 -12 -60 -14 -119 l-5 -108 109 0 109 0 -3 28 c-3 26 -6 27 -71 32 -76 6 -91 23 -23 28 29 2 46 8 50 19 10 26 -14 44 -55 41 -21 -1 -42 1 -46 6 -14 14 23 26 85 26 48 0 64 4 69 16 3 8 1 20 -6 27 -16 16 -187 19 -199 4z"/>
 <path d="M2848 6004 c-4 -3 8 -38 26 -77 18 -40 38 -89 45 -109 20 -59 81 -61 95 -2 4 15 23 60 42 101 19 40 32 78 29 83 -11 18 -44 10 -61 -15 -13 -20 -25 -25 -59 -25 -35 0 -44 4 -53 25 -11 23 -49 35 -64 19z m132 -120 c0 -9 -5 -14 -12 -12 -18 6 -21 28 -4 28 9 0 16 -7 16 -16z"/>
 <path d="M2180 4625 c-398 -40 -825 -237 -1141 -527 -100 -91 -249 -258 -232 -258 4 0 1 -5 -8 -10 -20 -12 -135 -182 -178 -264 -17 -33 -35 -64 -40 -70 -24 -33 -116 -285 -147 -403 -38 -149 -64 -355 -64 -513 0 -92 23 -349 36 -407 28 -126 83 -299 131 -413 60 -143 200 -370 309 -501 167 -201 425 -407 644 -514 52 -25 102 -50 112 -55 25 -14 179 -72 213 -81 16 -4 55 -15 85 -23 164 -47 253 -59 479 -64 263 -5 355 4 567 58 174 44 274 82 431 161 257 130 483 314 680 554 171 209 325 521 387 789 52 221 60 291 59 501 0 201 -8 262 -57 490 -51 233 -198 540 -364 760 -60 79 -239 262 -327 335 -442 362 -970 515 -1575 455z m441 -36 c133 -13 274 -42 419 -86 123 -37 123 -37 275 -108 108 -49 110 -51 260 -151 368 -247 644 -614 785 -1043 162 -493 124 -1030 -105 -1506 -96 -200 -223 -374 -401 -550 -335 -332 -748 -524 -1239 -576 -254 -27 -606 19 -865 113 -359 130 -662 351 -911 664 -230 287 -376 656 -419 1056 -14 134 -13 241 5 388 29 244 67 358 241 715 138 284 146 296 294 445 347 350 660 523 1116 614 170 35 367 44 545 25z"/>
 <path d="M1190 3740 c0 -20 7 -20 1260 -20 1253 0 1260 0 1260 20 0 20 -7 20 -1260 20 -1253 0 -1260 0 -1260 -20z"/>
 <path d="M874 3565 c-3 -8 -3 -19 1 -25 4 -7 488 -10 1561 -10 l1554 0 0 25 0 25 -1555 0 c-1351 0 -1556 -2 -1561 -15z"/>
 <path d="M1007 3330 c-62 -73 -64 -236 -3 -307 20 -23 26 -25 40 -14 14 12 14 16 -7 45 -19 27 -22 44 -22 123 0 80 3 95 24 123 20 28 21 34 9 47 -13 13 -18 11 -41 -17z"/>
 <path d="M1801 3346 c-11 -13 -9 -21 11 -48 20 -29 23 -45 23 -120 0 -75 -3 -90 -24 -118 -22 -30 -22 -33 -6 -49 15 -15 18 -14 40 13 61 76 60 237 -4 308 -24 27 -28 28 -40 14z"/>
 <path d="M1135 3285 c-22 -8 -41 -15 -43 -15 -1 0 7 -13 20 -30 24 -33 38 -38 38 -15 0 19 62 30 89 16 13 -7 21 -22 21 -36 0 -29 -22 -37 -95 -33 l-50 3 -3 -72 -3 -73 96 0 95 0 -1 38 c0 20 -3 31 -6 25 -3 -9 -26 -13 -64 -13 -55 0 -59 2 -59 23 0 20 4 22 45 19 39 -4 49 0 75 26 47 48 36 112 -25 137 -43 19 -78 18 -130 0z"/>
 <path d="M1570 3288 c-61 -32 -85 -113 -56 -183 34 -80 146 -99 209 -36 29 29 32 37 32 96 0 59 -3 67 -32 96 -24 25 -42 33 -80 36 -28 2 -58 -2 -73 -9z m105 -61 c21 -17 27 -32 27 -62 0 -30 -6 -45 -27 -62 -32 -28 -55 -29 -87 -3 -61 47 -31 146 44 149 9 1 29 -9 43 -22z"/>
 <path d="M2093 3288 c-18 -6 -33 -14 -33 -17 0 -3 11 -19 25 -36 18 -22 24 -25 25 -13 0 39 110 27 118 -13 2 -13 -6 -15 -52 -11 -84 7 -135 -35 -121 -99 18 -83 177 -93 213 -14 17 37 15 120 -4 156 -26 51 -97 70 -171 47z m127 -154 c13 -14 12 -17 -9 -35 -39 -32 -101 -18 -101 22 0 38 76 47 110 13z"/>
 <path d="M2653 3285 c-87 -37 -83 -193 6 -240 88 -45 191 19 191 120 0 102 -99 163 -197 120z m111 -56 c21 -16 26 -29 26 -64 0 -35 -5 -48 -26 -64 -15 -12 -34 -21 -44 -21 -27 0 -67 37 -73 66 -15 80 56 131 117 83z"/>
 <path d="M3093 3285 c-39 -17 -63 -61 -63 -117 0 -55 17 -87 59 -115 93 -63 213 16 198 130 -13 94 -103 142 -194 102z m112 -60 c70 -69 -21 -192 -93 -125 -58 54 -25 149 51 150 10 0 29 -11 42 -25z"/>
 <path d="M3533 3285 c-87 -37 -83 -193 6 -240 88 -45 191 19 191 120 0 101 -101 162 -197 120z m112 -60 c17 -16 25 -35 25 -60 0 -38 -35 -85 -64 -85 -31 0 -65 24 -76 53 -29 84 56 152 115 92z"/>
 <path d="M1398 3191 l3 -98 -24 4 c-17 3 -26 -1 -31 -13 -8 -20 -11 -17 42 -37 73 -29 71 -32 74 113 l3 130 -35 0 -35 0 3 -99z"/>
 <path d="M2457 3270 c5 -19 0 -20 -65 -20 -59 0 -73 -3 -81 -19 -9 -15 4 -33 75 -110 67 -70 92 -91 112 -91 l27 0 -4 85 c-2 71 -1 85 12 85 8 0 18 -6 20 -12 3 -7 6 6 6 29 1 37 -1 41 -21 35 -18 -4 -20 -2 -16 16 6 20 2 22 -32 22 -33 0 -37 -3 -33 -20z m3 -110 c0 -22 -1 -40 -3 -40 -2 0 -18 18 -36 40 l-32 40 36 0 c34 0 35 -1 35 -40z"/>
 <path d="M3368 3191 c3 -98 3 -99 -18 -94 -20 5 -39 -9 -40 -28 0 -7 80 -39 98 -39 9 0 12 33 12 124 0 90 3 126 13 129 6 3 -6 6 -28 6 l-40 1 3 -99z"/>
 <path d="M3760 3269 c-7 -11 -10 -22 -8 -23 2 -2 38 -26 81 -55 61 -41 77 -57 77 -76 0 -18 -7 -26 -26 -31 -29 -7 -78 11 -69 26 11 17 -9 11 -39 -13 l-29 -24 45 -21 c102 -50 196 -5 174 83 -7 27 -36 58 -81 86 l-30 19 55 0 c31 0 61 -5 68 -12 9 -9 12 -4 12 25 l0 37 -110 0 c-101 0 -110 -2 -120 -21z"/>
 <path d="M2870 3200 c0 -18 7 -20 65 -20 58 0 65 2 65 20 0 18 -7 20 -65 20 -58 0 -65 -2 -65 -20z"/>
 <path d="M907 2853 c-34 -33 -41 -33 1559 -33 1486 0 1565 1 1562 18 -3 16 -86 17 -1559 20 -856 1 -1559 -1 -1562 -5z"/>
 <path d="M1222 2658 l3 -23 1258 -3 1257 -2 0 25 0 25 -1261 0 -1260 0 3 -22z"/>
 <path d="M1996 2332 c-2 -4 5 -32 15 -62 11 -30 36 -102 56 -160 20 -58 41 -111 46 -117 10 -14 66 -17 82 -5 6 4 15 18 22 32 20 43 101 305 96 313 -2 4 -20 7 -39 7 -27 0 -36 -5 -43 -23 -14 -36 -36 -48 -83 -45 -38 3 -45 7 -57 36 -13 28 -19 32 -52 32 -21 0 -40 -3 -43 -8z m186 -137 c8 -8 -13 -85 -23 -85 -10 0 -30 70 -23 82 6 9 38 11 46 3z"/>
 <path d="M2345 2328 c-3 -7 -6 -71 -7 -143 l-3 -130 -40 -1 c-39 0 -40 -1 -40 -35 l0 -34 130 0 130 0 3 32 c3 31 2 32 -40 35 l-43 3 -2 120 c-4 161 -5 165 -49 165 -19 0 -37 -6 -39 -12z"/>
 <path d="M2518 2315 c-35 -33 -42 -58 -27 -103 7 -20 11 -55 10 -77 -3 -48 19 -73 71 -82 54 -8 88 18 88 69 0 37 -2 39 -27 36 -20 -2 -29 -9 -31 -25 -2 -13 -10 -23 -18 -23 -20 0 -18 39 3 47 10 4 28 20 41 35 29 35 42 36 42 3 0 -29 25 -43 49 -28 11 7 16 25 16 56 0 25 3 49 8 53 10 10 9 52 -2 59 -5 3 -21 0 -36 -7 -19 -9 -28 -9 -37 0 -7 7 -37 12 -68 12 -45 0 -60 -5 -82 -25z m92 -43 c0 -10 -41 -35 -47 -28 -11 11 7 36 27 36 11 0 20 -3 20 -8z"/>
 <path d="M2775 2328 c-3 -7 -6 -71 -7 -143 l-3 -130 -40 0 c-39 0 -40 -1 -40 -35 l0 -35 130 0 130 0 3 33 c3 33 -1 36 -44 33 -36 -3 -43 20 -46 155 l-3 129 -38 3 c-24 2 -39 -1 -42 -10z"/>
 <path d="M6564 4585 c-146 -15 -155 -17 -316 -65 -319 -96 -561 -233 -805 -458 -88 -80 -243 -252 -229 -252 3 0 -6 -12 -20 -27 -87 -94 -240 -380 -298 -557 -96 -293 -124 -567 -91 -891 74 -740 578 -1390 1293 -1669 50 -20 98 -36 107 -36 8 0 23 -4 33 -10 26 -14 226 -58 325 -71 124 -16 508 -7 607 15 185 39 303 74 430 128 177 75 379 197 519 315 126 105 299 300 399 449 149 222 265 530 309 819 24 158 24 448 -1 590 -9 55 -19 115 -22 133 -10 63 -65 240 -104 337 -65 159 -190 376 -283 490 -357 436 -844 708 -1360 760 -174 17 -323 17 -493 0z m437 -36 c149 -15 356 -62 496 -112 473 -171 874 -533 1103 -996 137 -278 202 -556 203 -876 1 -221 -31 -411 -105 -630 -139 -410 -390 -745 -753 -1001 -336 -238 -781 -369 -1195 -351 -419 18 -780 146 -1120 395 -41 30 -77 58 -80 61 -3 3 -40 37 -82 74 -79 70 -210 222 -291 338 -214 306 -347 735 -347 1119 0 197 50 484 106 606 261 569 266 578 451 763 373 374 741 551 1278 614 67 8 239 6 336 -4z"/>
 <path d="M5600 3710 c0 -20 7 -20 1235 -20 1228 0 1235 0 1235 20 0 20 -7 20 -1235 20 -1228 0 -1235 0 -1235 -20z"/>
 <path d="M5280 3530 c0 -20 4 -20 1533 -18 1354 3 1532 5 1532 18 0 13 -178 15 -1532 18 -1529 2 -1533 2 -1533 -18z"/>
 <path d="M5824 3307 l-32 -11 26 -39 c16 -25 28 -34 31 -26 6 21 23 29 63 29 28 0 42 -6 57 -26 28 -35 26 -46 -5 -34 -59 23 -141 3 -164 -39 -43 -81 37 -155 148 -138 123 20 135 242 15 288 -30 11 -98 9 -139 -4z m137 -157 c21 -12 25 -40 7 -58 -7 -7 -31 -12 -55 -12 -32 0 -45 5 -53 19 -13 25 -13 27 6 45 18 18 66 21 95 6z"/>
 <path d="M6449 3297 c-45 -30 -59 -60 -59 -127 0 -68 26 -115 75 -136 73 -30 149 -10 185 49 24 39 27 125 5 168 -36 68 -139 91 -206 46z m140 -63 c13 -16 21 -41 21 -64 0 -55 -31 -90 -80 -90 -50 0 -80 35 -80 93 0 55 30 87 81 87 29 0 42 -6 58 -26z"/>
 <path d="M6944 3304 c-87 -43 -92 -205 -9 -260 64 -42 168 -23 205 38 26 42 27 121 2 168 -33 63 -128 89 -198 54z m133 -70 c22 -22 25 -32 20 -70 -2 -25 -13 -54 -22 -64 -24 -26 -86 -27 -109 -1 -37 41 -37 121 1 148 29 22 81 16 110 -13z"/>
 <path d="M7432 3303 c-63 -31 -87 -121 -54 -196 35 -78 114 -107 197 -73 49 21 75 68 75 136 0 38 -6 65 -20 88 -36 58 -129 79 -198 45z m125 -58 c28 -20 39 -76 23 -116 -32 -76 -134 -62 -154 23 -7 31 8 78 31 96 23 17 74 15 100 -3z"/>
 <path d="M6238 3303 c6 -2 12 -13 12 -24 0 -17 -8 -19 -84 -19 -123 0 -123 -12 -4 -140 78 -84 97 -100 123 -100 l30 0 -4 91 c-3 89 -2 92 18 86 19 -5 21 -1 20 41 0 26 -3 41 -6 35 -2 -7 -12 -13 -20 -13 -11 0 -14 7 -11 25 5 24 3 25 -41 24 -25 0 -40 -3 -33 -6z m12 -143 c0 -22 -1 -40 -3 -40 -2 0 -21 18 -42 40 l-39 40 42 0 42 0 0 -40z"/>
 <path d="M7248 3201 c3 -108 3 -109 -18 -104 -21 6 -40 -9 -40 -33 0 -10 83 -44 108 -44 9 0 12 35 12 139 0 102 3 141 13 144 6 3 -8 6 -33 6 l-45 1 3 -109z"/>
 <path d="M7690 3291 c-5 -11 -10 -22 -10 -25 0 -3 33 -27 73 -54 93 -63 115 -88 100 -110 -16 -26 -84 -23 -98 4 -11 22 -11 22 -44 -8 -18 -16 -31 -30 -29 -31 97 -57 158 -63 207 -21 24 20 31 34 31 63 0 47 -19 73 -83 116 l-52 35 67 0 c53 0 69 -4 77 -17 8 -14 10 -9 11 25 l0 42 -120 0 c-108 0 -120 -2 -130 -19z"/>
 <path d="M6700 3205 c0 -24 2 -25 70 -25 68 0 70 1 70 25 0 24 -2 25 -70 25 -68 0 -70 -1 -70 -25z"/>
 <path d="M5313 2834 c-3 -8 -1 -20 4 -25 5 -5 596 -8 1534 -7 1516 3 1524 3 1524 23 0 20 -8 20 -1528 23 -1381 2 -1528 1 -1534 -14z"/>
 <path d="M5630 2645 l0 -25 1236 0 1235 0 -3 23 -3 22 -1232 3 -1233 2 0 -25z"/>
 <path d="M6395 2383 c-51 -4 -115 -27 -115 -43 0 -4 -9 -6 -20 -3 -31 8 -24 -9 26 -65 49 -55 70 -65 61 -32 -8 32 28 50 98 50 88 0 102 -6 110 -46 9 -48 0 -67 -37 -84 -39 -17 -114 -18 -130 -2 -7 7 -26 12 -44 12 -64 0 -64 0 -64 -141 l0 -129 180 0 180 0 0 55 c0 52 -14 73 -26 40 -5 -12 -28 -15 -120 -15 l-114 0 0 43 0 44 78 -5 c69 -4 84 -1 130 22 44 23 53 31 63 68 6 24 9 65 6 91 -10 108 -92 151 -262 140z"/>
 <path d="M7194 2381 c-61 -7 -113 -40 -148 -95 -24 -37 -26 -49 -26 -145 0 -98 2 -106 27 -140 36 -48 71 -81 97 -91 45 -17 125 -21 184 -10 58 12 96 37 138 91 25 34 35 160 19 247 -10 56 -101 142 -150 142 -18 0 -45 2 -61 4 -16 2 -52 1 -80 -3z m149 -113 c36 -35 48 -63 48 -122 2 -93 -22 -131 -93 -152 -71 -22 -166 23 -168 78 0 9 -4 20 -10 23 -16 10 -12 78 7 116 31 63 57 79 128 79 53 0 68 -4 88 -22z"/>
 <path d="M6800 2370 c0 -5 7 -10 15 -10 13 0 15 -27 15 -180 0 -195 1 -190 -55 -166 -29 12 -30 12 -47 -23 -12 -26 -13 -37 -5 -40 7 -2 14 -7 17 -11 10 -14 105 -40 147 -40 l43 0 0 230 c0 147 4 230 10 230 6 0 10 5 10 10 0 6 -32 10 -75 10 -43 0 -75 -4 -75 -10z"/>
 <path d="M6331 1669 c-78 -23 -111 -67 -111 -145 0 -42 4 -51 40 -85 44 -42 100 -56 170 -45 86 14 111 43 70 81 -19 18 -22 18 -56 2 -50 -24 -96 -22 -122 6 -27 29 -29 78 -4 100 27 24 97 22 133 -4 29 -20 31 -20 50 -4 30 28 25 64 -13 80 -47 19 -118 26 -157 14z"/>
 <path d="M6614 1645 c-57 -28 -74 -55 -74 -120 0 -78 70 -135 164 -135 59 0 88 12 127 52 60 63 60 117 -1 178 -57 57 -135 66 -216 25z m164 -65 c27 -26 28 -46 2 -87 -18 -31 -23 -33 -75 -33 -71 0 -100 24 -92 77 8 46 31 62 93 63 37 0 56 -5 72 -20z"/>
 <path d="M6916 1644 c-12 -30 -7 -239 6 -252 15 -15 185 -16 222 -2 43 16 68 66 64 131 -7 107 -58 139 -217 139 -54 0 -70 -4 -75 -16z m210 -89 c10 -15 14 -34 10 -49 -10 -41 -33 -56 -87 -56 l-49 0 0 65 0 65 55 0 c47 0 57 -3 71 -25z"/>
 <path d="M7283 1653 c-22 -4 -23 -7 -23 -137 l0 -133 110 -8 c126 -8 150 -3 150 30 0 29 -16 35 -100 35 -68 0 -97 13 -69 31 8 5 36 9 62 9 47 0 48 1 45 28 -3 23 -8 27 -38 30 -58 4 -80 12 -80 27 0 12 18 15 94 15 99 0 111 6 96 46 -5 13 -21 24 -40 28 -35 6 -171 6 -207 -1z"/>
 <path d="M6237 1263 c-12 -12 -8 -30 26 -105 19 -40 40 -89 47 -108 20 -53 30 -61 69 -58 27 2 37 8 39 23 4 24 21 64 73 166 21 43 35 80 32 83 -23 22 -93 -10 -93 -42 0 -8 -22 -12 -65 -12 -56 0 -65 3 -65 18 0 32 -43 56 -63 35z m143 -138 c0 -8 -4 -15 -10 -15 -5 0 -10 7 -10 15 0 8 5 15 10 15 6 0 10 -7 10 -15z"/>
 <path d="M6582 1262 c-8 -6 -13 -47 -15 -140 l-2 -132 121 0 c109 0 123 2 139 20 28 31 25 85 -7 116 l-26 26 30 43 c17 24 27 48 24 54 -4 6 -24 11 -45 11 -34 0 -41 -4 -55 -35 -23 -47 -43 -65 -73 -65 -24 0 -25 2 -21 44 3 25 1 49 -5 55 -13 13 -47 14 -65 3z m151 -168 c59 -10 48 -34 -15 -34 -64 0 -90 12 -62 29 22 12 27 13 77 5z"/>
 <path d="M6929 1243 c-10 -11 -15 -54 -17 -138 l-4 -122 47 -7 c70 -9 198 -7 215 4 11 7 12 15 4 37 -9 27 -12 28 -92 31 -64 2 -82 6 -82 17 0 16 8 18 52 15 49 -3 68 9 68 41 0 29 0 29 -60 29 -53 0 -60 2 -60 20 0 19 7 20 90 20 l90 0 0 29 c0 38 -11 41 -135 41 -83 0 -105 -3 -116 -17z"/>
 <path d="M7200 1242 c0 -4 16 -41 36 -81 20 -41 44 -100 54 -130 13 -44 22 -57 40 -59 38 -6 70 7 70 28 0 10 5 22 10 25 6 3 10 13 10 20 0 8 18 53 41 99 22 47 38 90 34 96 -13 21 -53 10 -75 -20 -19 -27 -27 -30 -75 -30 -51 0 -54 1 -60 30 -6 27 -10 30 -46 30 -21 0 -39 -3 -39 -8z m168 -134 c-6 -18 -28 -21 -28 -4 0 9 7 16 16 16 9 0 14 -5 12 -12z"/>
 </g>
<g id="layer102" fill="#1897cf" stroke="none">
 <path d="M2545 7861 c-75 -37 -133 -95 -171 -169 -26 -51 -29 -67 -29 -152 0 -94 1 -98 40 -165 75 -130 187 -192 329 -183 134 9 231 75 292 197 24 49 28 68 28 151 1 85 -2 101 -28 152 -38 75 -98 134 -171 169 -51 25 -72 29 -145 29 -74 0 -93 -4 -145 -29z m248 -52 c104 -40 187 -161 187 -272 -1 -49 -37 -143 -71 -184 -38 -46 -99 -80 -165 -94 -125 -26 -253 39 -309 156 -38 81 -42 132 -15 213 51 160 218 240 373 181z"/>
 <path d="M2655 7726 c-3 -9 -7 -23 -10 -31 -3 -12 -23 -15 -90 -15 l-85 0 0 -43 c0 -36 5 -47 30 -65 28 -21 30 -27 30 -86 0 -109 18 -135 93 -136 20 0 27 -5 27 -20 0 -17 7 -20 40 -20 33 0 40 3 40 20 0 15 7 20 28 20 69 0 92 26 92 104 0 72 11 107 36 118 20 10 24 18 24 59 l0 48 -87 3 c-84 3 -87 4 -93 28 -4 19 -13 26 -38 28 -22 2 -34 -1 -37 -12z m159 -112 c15 -6 15 -7 1 -18 -10 -7 -20 -40 -27 -86 -6 -41 -15 -81 -21 -87 -6 -8 -35 -13 -77 -13 -42 0 -71 5 -78 13 -5 6 -13 43 -17 80 -4 46 -13 75 -25 87 -10 10 -16 21 -12 24 7 8 236 8 256 0z"/>
 <path d="M2373 1934 c-87 -19 -142 -46 -211 -103 -64 -54 -118 -128 -148 -206 -29 -75 -26 -260 4 -334 80 -191 254 -311 451 -311 269 0 481 213 481 482 0 231 -164 430 -390 474 -88 17 -105 16 -187 -2z m205 -94 c60 -19 136 -63 171 -100 36 -37 79 -108 96 -158 27 -83 18 -210 -20 -286 -43 -85 -102 -147 -181 -187 -65 -32 -73 -34 -174 -34 -94 0 -111 3 -161 28 -68 33 -147 106 -182 167 -14 25 -34 79 -43 121 -15 71 -15 82 0 151 33 149 135 258 279 299 82 23 138 23 215 -1z"/>
 <path d="M2416 1714 c-3 -9 -6 -24 -6 -34 0 -26 -19 -30 -136 -30 l-104 0 0 -62 c1 -60 2 -64 33 -83 30 -19 33 -25 45 -115 21 -160 20 -159 52 -175 16 -8 47 -15 68 -15 36 0 40 -3 46 -31 6 -29 7 -30 58 -27 49 3 53 5 56 31 3 24 7 27 42 27 46 0 82 14 97 40 7 10 15 58 19 106 8 105 24 150 58 166 24 10 26 16 26 75 l0 63 -115 0 c-84 0 -117 3 -119 13 -3 6 -7 24 -10 40 -6 25 -10 27 -55 27 -35 0 -51 -4 -55 -16z m221 -150 l23 -6 -25 -30 c-28 -33 -32 -45 -39 -142 -3 -37 -11 -75 -17 -82 -17 -21 -209 -15 -220 6 -4 8 -13 56 -20 105 -9 70 -17 96 -36 116 -13 14 -20 28 -16 32 8 9 319 9 350 1z"/>
 </g>
<g id="layer103" fill="#fefefe" stroke="none">
 <path d="M0 4640 l0 -4640 4620 0 4620 0 0 4640 0 4640 -4620 0 -4620 0 0 -4640z m7490 3055 l0 -615 -2895 0 -2895 0 0 615 0 615 2895 0 2895 0 0 -615z m0 -1630 l0 -615 -2895 0 -2895 0 0 615 0 615 2895 0 2895 0 0 -615z m-4809 -1440 c381 -38 763 -200 1074 -455 88 -73 267 -256 327 -335 166 -220 313 -527 364 -760 49 -228 57 -289 57 -490 1 -210 -7 -280 -59 -501 -132 -565 -538 -1075 -1067 -1343 -157 -79 -257 -117 -431 -161 -212 -54 -304 -63 -567 -58 -226 5 -315 17 -479 64 -30 8 -69 19 -85 23 -34 9 -188 67 -213 81 -10 5 -60 30 -112 55 -219 107 -477 313 -644 514 -109 131 -249 358 -309 501 -48 114 -103 287 -131 413 -13 58 -36 315 -36 407 0 158 26 364 64 513 31 118 123 370 147 403 5 6 23 37 40 70 43 82 158 252 178 264 9 5 12 10 8 10 -17 0 132 167 232 258 257 236 571 403 926 492 184 46 469 60 716 35z m4376 -40 c454 -46 897 -266 1224 -610 156 -164 226 -261 333 -457 79 -146 170 -395 190 -520 3 -18 13 -78 22 -133 25 -142 25 -432 1 -590 -44 -289 -160 -597 -309 -819 -100 -149 -273 -344 -399 -449 -140 -118 -342 -240 -519 -315 -127 -54 -245 -89 -430 -128 -99 -22 -483 -31 -607 -15 -99 13 -299 57 -325 71 -10 6 -25 10 -33 10 -9 0 -57 16 -107 36 -552 216 -985 655 -1189 1206 -152 411 -156 915 -13 1354 58 177 211 463 298 557 14 15 23 27 20 27 -14 0 141 172 229 252 244 225 486 362 805 458 161 48 170 50 316 65 170 17 319 17 493 0z"/>
 <path d="M1720 7695 l0 -595 2875 0 2875 0 0 595 0 595 -2875 0 -2875 0 0 -595z m698 460 c9 -20 19 -25 47 -25 29 0 37 5 45 25 7 19 17 25 40 25 16 0 30 -3 30 -7 0 -24 -80 -237 -92 -244 -27 -18 -48 -9 -68 31 -11 21 -20 45 -20 53 0 7 -11 41 -25 75 -33 80 -32 92 3 92 21 0 32 -7 40 -25z m242 -74 l0 -100 33 -3 c27 -2 32 -7 32 -28 0 -25 0 -25 -95 -25 l-95 0 -3 28 c-3 25 -1 27 32 27 l36 0 0 100 0 100 30 0 30 0 0 -99z m320 -2 l0 -99 31 0 c27 0 30 -3 27 -27 l-3 -28 -92 -3 -93 -3 0 30 c0 28 3 31 30 31 l30 0 0 85 c0 47 -4 85 -9 85 -12 0 -21 -26 -21 -61 0 -22 -5 -29 -19 -29 -13 0 -21 8 -23 22 -3 22 -5 21 -43 -14 -33 -30 -38 -39 -27 -50 10 -10 14 -9 18 10 10 34 44 29 44 -7 0 -31 -14 -41 -56 -41 -45 0 -65 18 -64 58 0 20 -2 51 -6 69 -4 23 -1 36 14 51 19 19 33 21 141 20 l121 -1 0 -98z m1563 -268 c24 -54 28 -173 8 -243 -7 -25 -26 -61 -41 -80 -28 -33 -28 -33 -49 -14 l-21 19 20 22 c26 28 50 104 50 160 0 54 -26 141 -50 165 -16 16 -17 20 -3 40 l15 21 25 -23 c14 -13 35 -43 46 -67z m-1708 50 c73 -35 133 -94 171 -169 26 -51 29 -67 28 -152 0 -83 -4 -102 -28 -151 -61 -122 -158 -188 -292 -197 -142 -9 -254 53 -329 183 -39 67 -40 71 -40 165 0 85 3 101 29 152 38 74 96 132 171 169 52 25 71 29 145 29 73 0 94 -4 145 -29z m705 14 c10 -13 10 -19 -5 -35 -27 -30 -44 -90 -45 -160 0 -81 15 -136 45 -166 23 -23 23 -23 3 -41 -20 -18 -21 -17 -53 20 -72 83 -75 269 -6 366 25 34 42 39 61 16z m253 -59 c45 -19 68 -48 74 -95 5 -36 2 -44 -31 -77 -34 -34 -39 -36 -91 -32 -54 3 -55 3 -55 -24 0 -28 0 -28 68 -28 40 0 73 5 80 12 9 9 12 3 12 -30 l0 -42 -115 0 -115 0 0 91 0 91 69 -7 c80 -8 111 3 111 40 0 29 -26 45 -74 45 -44 0 -66 -9 -66 -26 0 -23 -17 -16 -43 18 l-25 32 23 12 c69 35 126 42 178 20z m508 3 c76 -26 117 -99 105 -187 -12 -89 -77 -138 -174 -130 -49 4 -59 9 -93 45 -60 65 -65 161 -11 225 45 53 105 69 173 47z m664 -9 c75 -36 108 -145 71 -233 -24 -58 -49 -72 -131 -72 -68 0 -76 2 -104 29 -41 40 -44 101 -5 139 34 35 101 45 155 24 44 -17 45 -17 24 22 -17 33 -33 41 -83 41 -40 0 -57 -8 -63 -29 -3 -8 -15 2 -32 28 -28 41 -33 56 -19 47 5 -3 26 1 48 9 54 20 91 18 139 -5z m667 8 c82 -24 125 -117 98 -213 -20 -70 -70 -105 -152 -105 -82 0 -146 58 -155 144 -15 127 86 211 209 174z m558 -10 c59 -30 83 -74 83 -148 0 -100 -58 -160 -155 -160 -92 0 -158 69 -158 165 0 70 25 115 80 143 24 12 58 22 75 22 17 0 51 -10 75 -22z m536 3 c63 -29 87 -75 82 -162 -3 -65 -6 -72 -41 -107 -36 -35 -40 -37 -105 -37 -55 0 -73 4 -101 24 -42 30 -61 75 -61 143 0 68 27 113 83 138 53 24 91 25 143 1z m-2680 -7 c-3 -9 -6 -81 -6 -160 0 -165 4 -160 -93 -123 -53 20 -55 22 -45 45 12 27 20 29 49 14 18 -10 19 -6 19 103 0 74 -4 117 -12 125 -9 9 0 12 41 12 44 0 52 -3 47 -16z m1296 -14 c-5 -32 13 -41 36 -18 9 9 12 2 12 -35 0 -46 -1 -47 -26 -41 l-26 7 4 -102 3 -101 -35 0 c-31 1 -46 12 -138 110 -91 97 -102 112 -92 130 10 18 20 20 100 20 80 0 90 2 90 18 0 10 -5 23 -12 30 -9 9 -1 12 38 12 50 0 51 0 46 -30z m1110 18 c-8 -8 -12 -58 -12 -160 0 -168 3 -163 -83 -130 -54 21 -53 19 -45 50 5 19 11 22 33 16 l26 -6 -3 121 -3 121 50 0 c38 0 46 -3 37 -12z m678 -35 c-1 -43 -2 -46 -14 -30 -11 15 -26 17 -81 15 l-68 -3 53 -34 c78 -51 109 -117 80 -172 -15 -27 -63 -49 -109 -49 -43 0 -121 26 -121 41 0 5 -8 9 -17 9 -12 0 -7 8 17 30 42 35 46 36 53 11 11 -43 117 -35 117 8 0 24 -58 76 -138 125 l-62 37 15 30 16 29 129 0 130 0 0 -47z m-1210 -73 c0 -18 -7 -20 -75 -20 -68 0 -75 2 -75 20 0 18 7 20 75 20 68 0 75 -2 75 -20z"/>
 <path d="M2446 8058 c14 -48 21 -52 33 -18 14 42 15 40 -15 40 -22 0 -24 -3 -18 -22z"/>
 <path d="M2760 8125 c-14 -16 -10 -18 14 -9 9 3 16 10 16 15 0 14 -16 11 -30 -6z"/>
 <path d="M2585 7809 c-78 -32 -139 -98 -165 -181 -27 -81 -23 -132 15 -213 56 -117 184 -182 309 -156 105 22 170 77 212 179 29 71 30 125 3 199 -56 153 -226 231 -374 172z m145 -99 c6 -24 9 -25 93 -28 l87 -3 0 -48 c0 -41 -4 -49 -24 -59 -25 -11 -36 -46 -36 -118 0 -78 -23 -104 -92 -104 -21 0 -28 -5 -28 -20 0 -17 -7 -20 -40 -20 -33 0 -40 3 -40 20 0 15 -7 20 -27 20 -75 1 -93 27 -93 136 0 59 -2 65 -30 86 -25 18 -30 29 -30 65 l0 43 85 0 c67 0 87 3 90 15 3 8 7 22 10 31 3 11 15 14 37 12 25 -2 34 -9 38 -28z"/>
 <path d="M2558 7614 c-4 -3 2 -14 12 -24 12 -12 21 -41 25 -87 4 -37 12 -74 17 -80 7 -8 36 -13 78 -13 42 0 71 5 77 13 6 6 15 46 21 87 7 46 17 79 27 86 14 11 14 12 -1 18 -20 8 -249 8 -256 0z"/>
 <path d="M4185 7735 c-34 -34 -35 -103 -1 -142 19 -22 32 -28 66 -28 35 0 46 6 66 30 38 47 25 141 -21 159 -37 14 -86 6 -110 -19z"/>
 <path d="M4858 7639 c-29 -16 -23 -58 10 -70 34 -14 91 -1 106 24 23 39 -68 75 -116 46z"/>
 <path d="M5515 7735 c-34 -34 -35 -103 -1 -142 19 -22 32 -28 66 -28 34 0 47 6 66 28 38 45 28 126 -20 159 -25 17 -87 8 -111 -17z"/>
 <path d="M6054 7737 c-23 -20 -27 -31 -26 -73 0 -41 5 -53 31 -76 17 -16 40 -28 52 -28 86 0 128 112 67 178 -29 30 -88 30 -124 -1z"/>
 <path d="M6593 7738 c-72 -80 1 -208 96 -168 57 23 75 118 31 166 -32 33 -98 34 -127 2z"/>
 <path d="M5215 7658 c21 -24 42 -47 46 -52 5 -6 9 12 9 42 l0 52 -46 0 -46 0 37 -42z"/>
 <path d="M1720 6065 l0 -595 2875 0 2875 0 0 595 0 595 -2875 0 -2875 0 0 -595z m538 276 c25 -13 29 -43 9 -60 -10 -8 -23 -6 -52 9 -62 32 -115 11 -115 -45 0 -53 45 -73 113 -49 40 14 43 14 60 -7 24 -30 9 -45 -58 -60 -47 -10 -60 -10 -100 6 -75 28 -105 98 -70 165 32 62 136 82 213 41z m236 5 c47 -20 76 -61 76 -108 0 -32 -7 -47 -33 -73 -84 -84 -237 -35 -237 76 0 53 13 75 58 98 44 24 90 26 136 7z m323 -28 c20 -21 27 -39 31 -81 4 -49 1 -57 -24 -86 -28 -32 -31 -32 -116 -32 -48 -1 -91 1 -95 4 -4 3 -7 56 -5 117 l3 112 90 -4 c81 -4 92 -7 116 -30z m295 6 c16 -35 0 -44 -84 -44 -92 0 -91 -22 2 -32 17 -2 25 -9 25 -23 0 -14 -8 -21 -25 -23 -90 -10 -93 -28 -5 -34 68 -4 92 -16 82 -42 -5 -13 -23 -16 -89 -16 -135 0 -128 -6 -125 119 1 58 7 109 12 113 6 4 52 8 103 8 90 0 93 -1 104 -26z m1451 -153 c24 -54 28 -173 8 -243 -7 -25 -26 -61 -41 -80 -28 -33 -28 -33 -49 -14 l-21 19 20 22 c26 28 50 104 50 160 0 54 -26 141 -50 165 -16 16 -17 20 -3 40 l15 21 25 -23 c14 -13 35 -43 46 -67z m-1003 64 c10 -13 10 -19 -5 -35 -27 -30 -44 -90 -45 -160 0 -81 15 -136 45 -166 23 -23 23 -23 3 -41 -20 -18 -21 -17 -53 20 -72 83 -75 269 -6 366 25 34 42 39 61 16z m253 -59 c45 -19 68 -48 74 -95 5 -36 2 -44 -31 -77 -34 -34 -39 -36 -91 -32 -54 3 -55 3 -55 -24 0 -28 0 -28 68 -28 40 0 73 5 80 12 9 9 12 3 12 -30 l0 -42 -115 0 -115 0 0 91 0 91 69 -7 c80 -8 111 3 111 40 0 29 -26 45 -74 45 -44 0 -66 -9 -66 -26 0 -23 -17 -16 -43 18 l-25 32 23 12 c69 35 126 42 178 20z m508 3 c76 -26 117 -99 105 -187 -12 -89 -77 -138 -174 -130 -49 4 -59 9 -93 45 -60 65 -65 161 -11 225 45 53 105 69 173 47z m664 -9 c75 -36 108 -145 71 -233 -24 -58 -49 -72 -131 -72 -68 0 -76 2 -104 29 -41 40 -44 101 -5 139 34 35 101 45 155 24 44 -17 45 -17 24 22 -17 33 -33 41 -83 41 -40 0 -57 -8 -63 -29 -3 -8 -15 2 -32 28 -28 41 -33 56 -19 47 5 -3 26 1 48 9 54 20 91 18 139 -5z m667 8 c82 -24 125 -117 98 -213 -20 -70 -70 -105 -152 -105 -82 0 -146 58 -155 144 -15 127 86 211 209 174z m558 -10 c59 -30 83 -74 83 -148 0 -100 -58 -160 -155 -160 -92 0 -158 69 -158 165 0 70 25 115 80 143 24 12 58 22 75 22 17 0 51 -10 75 -22z m536 3 c63 -29 87 -75 82 -162 -3 -65 -6 -72 -41 -107 -36 -35 -40 -37 -105 -37 -55 0 -73 4 -101 24 -42 30 -61 75 -61 143 0 68 27 113 83 138 53 24 91 25 143 1z m-2680 -7 c-3 -9 -6 -81 -6 -160 0 -165 4 -160 -93 -123 -53 20 -55 22 -45 45 12 27 20 29 49 14 18 -10 19 -6 19 103 0 74 -4 117 -12 125 -9 9 0 12 41 12 44 0 52 -3 47 -16z m1296 -14 c-5 -32 13 -41 36 -18 9 9 12 2 12 -35 0 -46 -1 -47 -26 -41 l-26 7 4 -102 3 -101 -35 0 c-31 1 -46 12 -138 110 -91 97 -102 112 -92 130 10 18 20 20 100 20 80 0 90 2 90 18 0 10 -5 23 -12 30 -9 9 -1 12 38 12 50 0 51 0 46 -30z m1110 18 c-8 -8 -12 -58 -12 -160 0 -168 3 -163 -83 -130 -54 21 -53 19 -45 50 5 19 11 22 33 16 l26 -6 -3 121 -3 121 50 0 c38 0 46 -3 37 -12z m678 -35 c-1 -43 -2 -46 -14 -30 -11 15 -26 17 -81 15 l-68 -3 53 -34 c78 -51 109 -117 80 -172 -15 -27 -63 -49 -109 -49 -43 0 -121 26 -121 41 0 5 -8 9 -17 9 -12 0 -7 8 17 30 42 35 46 36 53 11 11 -43 117 -35 117 8 0 24 -58 76 -138 125 l-62 37 15 30 16 29 129 0 130 0 0 -47z m-1210 -73 c0 -18 -7 -20 -75 -20 -68 0 -75 2 -75 20 0 18 7 20 75 20 68 0 75 -2 75 -20z m-3650 -49 c0 -4 -7 -17 -16 -30 -9 -12 -31 -60 -50 -104 -32 -78 -35 -82 -65 -82 -30 0 -33 4 -71 90 -55 124 -57 135 -24 135 19 0 29 -7 36 -25 8 -22 16 -25 55 -25 39 0 47 4 55 24 5 13 17 26 27 28 22 5 53 -2 53 -11z m102 -38 c-3 -38 -1 -43 17 -43 23 0 33 10 61 58 15 24 27 32 49 32 41 0 44 -11 14 -53 l-26 -37 23 -25 c27 -29 29 -68 4 -96 -16 -18 -28 -19 -118 -17 -84 3 -100 6 -97 18 2 8 5 58 7 110 2 52 3 96 4 98 0 2 15 2 32 0 32 -3 33 -4 30 -45z m429 30 c7 -7 9 -19 6 -27 -5 -12 -21 -16 -69 -16 -62 0 -99 -12 -85 -26 4 -5 25 -7 46 -6 41 3 65 -15 55 -41 -4 -11 -21 -17 -50 -19 -68 -5 -53 -22 23 -28 65 -5 68 -6 71 -32 l3 -28 -109 0 -109 0 5 108 c2 59 9 112 14 119 12 15 183 12 199 -4z m91 -18 c9 -21 18 -25 53 -25 34 0 46 5 59 25 17 25 50 33 61 15 3 -5 -10 -43 -29 -83 -19 -41 -38 -86 -42 -101 -14 -59 -75 -57 -95 2 -7 20 -27 69 -45 109 -18 39 -30 74 -26 77 15 16 53 4 64 -19z"/>
 <path d="M2410 6303 c-52 -18 -67 -80 -28 -107 50 -36 128 -7 128 47 0 39 -59 74 -100 60z"/>
 <path d="M2676 6275 c-10 -27 -7 -70 7 -90 27 -36 107 -1 107 47 0 27 -25 47 -66 54 -33 5 -42 3 -48 -11z"/>
 <path d="M4205 6095 c-34 -34 -35 -103 -1 -142 19 -22 32 -28 66 -28 35 0 46 6 66 30 38 47 25 141 -21 159 -37 14 -86 6 -110 -19z"/>
 <path d="M4878 5999 c-29 -16 -23 -58 10 -70 34 -14 91 -1 106 24 23 39 -68 75 -116 46z"/>
 <path d="M5535 6095 c-34 -34 -35 -103 -1 -142 19 -22 32 -28 66 -28 34 0 47 6 66 28 38 45 28 126 -20 159 -25 17 -87 8 -111 -17z"/>
 <path d="M6074 6097 c-23 -20 -27 -31 -26 -73 0 -41 5 -53 31 -76 17 -16 40 -28 52 -28 86 0 128 112 67 178 -29 30 -88 30 -124 -1z"/>
 <path d="M6613 6098 c-72 -80 1 -208 96 -168 57 23 75 118 31 166 -32 33 -98 34 -127 2z"/>
 <path d="M5235 6018 c21 -24 42 -47 46 -52 5 -6 9 12 9 42 l0 52 -46 0 -46 0 37 -42z"/>
 <path d="M2387 5874 c-14 -15 6 -24 54 -24 36 0 49 4 47 13 -5 13 -89 23 -101 11z"/>
 <path d="M2952 5888 c6 -18 28 -21 28 -4 0 9 -7 16 -16 16 -9 0 -14 -5 -12 -12z"/>
 <path d="M2236 4589 c-156 -16 -390 -73 -531 -129 -283 -112 -494 -257 -745 -510 -148 -149 -156 -161 -294 -445 -174 -357 -212 -471 -241 -715 -29 -239 -16 -416 50 -695 41 -171 119 -365 215 -534 128 -224 361 -477 575 -625 338 -233 697 -354 1105 -373 426 -19 883 119 1241 375 128 91 328 280 411 387 371 482 505 1028 402 1635 -9 52 -38 161 -64 241 -141 429 -417 796 -785 1043 -150 100 -152 102 -260 151 -152 71 -152 71 -275 108 -281 85 -546 113 -804 86z m1474 -849 c0 -20 -7 -20 -1260 -20 -1253 0 -1260 0 -1260 20 0 20 7 20 1260 20 1253 0 1260 0 1260 -20z m280 -185 l0 -25 -1554 0 c-1073 0 -1557 3 -1561 10 -4 6 -4 17 -1 25 5 13 210 15 1561 15 l1555 0 0 -25z m-2951 -255 c-21 -28 -24 -43 -24 -123 0 -79 3 -96 22 -123 21 -29 21 -33 7 -45 -14 -11 -20 -9 -40 14 -61 71 -59 234 3 307 23 28 28 30 41 17 12 -13 11 -19 -9 -47z m840 -37 c23 -81 7 -187 -34 -239 -22 -27 -25 -28 -40 -13 -16 16 -16 19 6 49 21 28 24 43 24 118 0 75 -3 91 -23 120 -20 27 -22 35 -11 48 12 14 16 13 40 -14 15 -17 33 -48 38 -69z m-614 22 c61 -25 72 -89 25 -137 -26 -26 -36 -30 -75 -26 -41 3 -45 1 -45 -19 0 -21 4 -23 59 -23 38 0 61 4 64 13 3 6 6 -5 6 -25 l1 -38 -95 0 -96 0 3 73 3 72 50 -3 c73 -4 95 4 95 33 0 14 -8 29 -21 36 -27 14 -89 3 -89 -16 0 -23 -14 -18 -38 15 -13 17 -21 30 -20 30 2 0 21 7 43 15 52 18 87 19 130 0z m458 -24 c29 -29 32 -37 32 -96 0 -59 -3 -67 -32 -96 -63 -63 -175 -44 -209 36 -20 49 -17 97 9 136 31 46 62 61 120 56 38 -3 56 -11 80 -36z m492 25 c19 -8 41 -28 49 -45 19 -36 21 -119 4 -156 -36 -79 -195 -69 -213 14 -14 64 37 106 121 99 46 -4 54 -2 52 11 -8 40 -118 52 -118 13 -1 -12 -7 -9 -25 13 -14 17 -25 33 -25 36 0 9 60 27 93 28 15 1 43 -5 62 -13z m566 -1 c118 -62 72 -255 -61 -255 -99 0 -163 117 -114 211 27 53 114 75 175 44z m434 1 c41 -17 65 -52 72 -103 15 -114 -105 -193 -198 -130 -42 28 -59 60 -59 115 0 104 86 159 185 118z m440 0 c95 -40 99 -192 6 -241 -90 -46 -191 19 -191 123 0 104 86 159 185 118z m-2193 -126 c-3 -145 -1 -142 -74 -113 -53 20 -50 17 -42 37 5 12 14 16 31 13 l24 -4 -3 98 -3 99 35 0 35 0 -3 -130z m1060 108 c-4 -18 -2 -20 16 -16 20 6 22 2 21 -35 0 -23 -3 -36 -6 -29 -2 6 -12 12 -20 12 -13 0 -14 -14 -12 -85 l4 -85 -27 0 c-20 0 -45 21 -112 91 -71 77 -84 95 -75 110 8 16 22 19 81 19 65 0 70 1 65 20 -4 17 0 20 33 20 34 0 38 -2 32 -22z m911 15 c-10 -3 -13 -39 -13 -129 0 -91 -3 -124 -12 -124 -18 0 -98 32 -98 39 1 19 20 33 40 28 21 -5 21 -4 18 94 l-3 99 40 -1 c22 0 34 -3 28 -6z m557 -30 c0 -29 -3 -34 -12 -25 -7 7 -37 12 -68 12 l-55 0 30 -19 c93 -58 114 -140 45 -176 -40 -21 -86 -19 -138 7 l-45 21 29 24 c30 24 50 30 39 13 -9 -15 40 -33 69 -26 19 5 26 13 26 31 0 19 -16 35 -77 76 -43 29 -79 53 -81 55 -2 1 1 12 8 23 10 19 19 21 120 21 l110 0 0 -37z m-990 -53 c0 -18 -7 -20 -65 -20 -58 0 -65 2 -65 20 0 18 7 20 65 20 58 0 65 -2 65 -20z m1028 -362 c3 -17 -76 -18 -1562 -18 -1600 0 -1593 0 -1559 33 3 4 706 6 1562 5 1473 -3 1556 -4 1559 -20z m-288 -183 l0 -25 -1257 2 -1258 3 -3 23 -3 22 1260 0 1261 0 0 -25z m-1649 -347 c12 -29 19 -33 57 -36 47 -3 69 9 83 45 7 18 16 23 43 23 19 0 37 -3 39 -7 5 -8 -76 -270 -96 -313 -7 -14 -16 -28 -22 -32 -16 -12 -72 -9 -82 5 -5 6 -26 59 -46 117 -20 58 -45 130 -56 160 -10 30 -17 58 -15 62 3 5 22 8 43 8 33 0 39 -4 52 -32z m334 10 c3 -13 6 -77 8 -143 l2 -120 43 -3 c42 -3 43 -4 40 -35 l-3 -32 -130 0 -130 0 0 34 c0 34 1 35 40 35 l40 1 3 130 c1 72 4 136 7 143 2 6 20 12 39 12 29 0 37 -4 41 -22z m243 10 c9 -9 18 -9 37 0 15 7 31 10 36 7 11 -7 12 -49 2 -59 -5 -4 -8 -28 -8 -53 0 -31 -5 -49 -16 -56 -24 -15 -49 -1 -49 28 0 33 -13 32 -42 -3 -13 -15 -31 -31 -41 -35 -21 -8 -23 -47 -3 -47 8 0 16 10 18 23 2 16 11 23 31 25 25 3 27 1 27 -36 0 -51 -34 -77 -88 -69 -52 9 -74 34 -71 82 1 22 -3 57 -10 77 -15 45 -8 70 27 103 22 20 37 25 82 25 31 0 61 -5 68 -12z m190 -122 c3 -135 10 -158 46 -155 43 3 47 0 44 -33 l-3 -33 -130 0 -130 0 0 35 c0 34 1 35 40 35 l40 0 3 130 c1 72 4 136 7 143 3 9 18 12 42 10 l38 -3 3 -129z m-298 -270 c226 -44 390 -243 390 -474 0 -269 -212 -482 -481 -482 -197 0 -371 120 -451 311 -30 74 -33 259 -4 334 30 78 84 152 148 206 69 57 124 84 211 103 82 18 99 19 187 2z"/>
 <path d="M1593 3238 c-47 -23 -50 -103 -5 -138 32 -26 55 -25 87 3 21 17 27 32 27 62 0 30 -6 45 -27 62 -28 25 -48 28 -82 11z"/>
 <path d="M2133 3150 c-45 -18 -18 -70 35 -70 11 0 30 9 43 19 21 18 22 21 9 35 -20 20 -60 27 -87 16z"/>
 <path d="M2684 3240 c-47 -19 -51 -105 -6 -140 32 -25 53 -25 86 1 21 16 26 29 26 64 0 35 -5 48 -26 64 -28 22 -46 25 -80 11z"/>
 <path d="M3121 3237 c-47 -24 -52 -97 -9 -137 47 -43 118 -4 118 65 0 25 -8 44 -25 60 -27 28 -48 31 -84 12z"/>
 <path d="M3564 3240 c-30 -12 -47 -67 -34 -107 11 -29 45 -53 76 -53 29 0 64 47 64 85 0 25 -8 44 -25 60 -25 26 -45 30 -81 15z"/>
 <path d="M2421 3160 c18 -22 34 -40 36 -40 2 0 3 18 3 40 0 39 -1 40 -35 40 l-36 0 32 -40z"/>
 <path d="M2136 2192 c-7 -12 13 -82 23 -82 10 0 31 77 23 85 -8 8 -40 6 -46 -3z"/>
 <path d="M2563 2265 c-3 -9 -3 -18 0 -21 6 -7 47 18 47 28 0 15 -41 8 -47 -7z"/>
 <path d="M2363 1841 c-144 -41 -246 -150 -279 -299 -15 -69 -15 -80 0 -151 9 -42 29 -96 43 -121 35 -61 114 -134 182 -167 50 -25 67 -28 161 -28 101 0 109 2 174 34 79 40 138 102 181 187 38 76 47 203 20 286 -17 50 -60 121 -96 158 -35 37 -111 81 -171 100 -77 24 -133 24 -215 1z m163 -138 c3 -16 7 -34 10 -40 2 -10 35 -13 119 -13 l115 0 0 -63 c0 -59 -2 -65 -26 -75 -34 -16 -50 -61 -58 -166 -4 -48 -12 -96 -19 -106 -15 -26 -51 -40 -97 -40 -35 0 -39 -3 -42 -27 -3 -26 -7 -28 -56 -31 -51 -3 -52 -2 -58 27 -6 28 -10 31 -46 31 -21 0 -52 7 -68 15 -32 16 -31 15 -52 175 -12 90 -15 96 -45 115 -31 19 -32 23 -33 83 l0 62 104 0 c117 0 136 4 136 30 0 41 11 50 61 50 45 0 49 -2 55 -27z"/>
 <path d="M2287 1563 c-4 -4 3 -18 16 -32 19 -20 27 -46 36 -116 7 -49 16 -97 20 -105 11 -21 203 -27 220 -6 6 7 14 45 17 82 7 97 11 109 39 142 l25 30 -23 6 c-31 8 -342 8 -350 -1z"/>
 <path d="M6665 4553 c-309 -36 -565 -113 -795 -239 -152 -83 -325 -217 -483 -375 -185 -185 -190 -194 -451 -763 -39 -86 -77 -256 -96 -428 -46 -433 85 -936 337 -1297 81 -116 212 -268 291 -338 42 -37 79 -71 82 -74 3 -3 39 -31 80 -61 340 -249 701 -377 1120 -395 318 -14 696 70 969 215 221 116 364 225 544 411 287 298 486 728 529 1141 82 778 -286 1517 -955 1922 -205 124 -359 184 -622 242 -173 39 -412 56 -550 39z m1405 -843 c0 -20 -7 -20 -1235 -20 -1228 0 -1235 0 -1235 20 0 20 7 20 1235 20 1228 0 1235 0 1235 -20z m275 -180 c0 -13 -178 -15 -1532 -18 -1529 -2 -1533 -2 -1533 18 0 20 4 20 1533 18 1354 -3 1532 -5 1532 -18z m-2382 -219 c60 -23 93 -97 81 -178 -13 -85 -77 -126 -170 -109 -94 18 -116 128 -34 171 33 17 87 19 124 5 31 -12 33 -1 5 34 -30 38 -108 36 -120 -3 -3 -8 -15 1 -31 26 l-26 39 32 11 c41 13 109 15 139 4z m644 -11 c43 -26 63 -68 63 -132 0 -62 -25 -110 -69 -133 -64 -32 -156 -10 -191 47 -23 38 -27 128 -7 168 33 65 138 91 204 50z m482 2 c68 -34 94 -149 51 -220 -37 -61 -141 -80 -205 -38 -83 55 -78 217 9 260 41 21 103 20 145 -2z m486 4 c49 -21 75 -68 75 -136 0 -95 -54 -150 -147 -150 -111 0 -175 130 -118 240 28 54 118 76 190 46z m-1263 -21 c-3 -18 0 -25 11 -25 8 0 18 6 20 13 3 6 6 -9 6 -35 1 -42 -1 -46 -20 -41 -20 6 -21 3 -18 -86 l4 -91 -30 0 c-26 0 -45 16 -123 100 -119 128 -119 140 4 140 76 0 84 2 84 19 0 11 -6 22 -12 24 -7 3 8 6 33 6 44 1 46 0 41 -24z m1011 18 c-10 -3 -13 -42 -13 -144 0 -104 -3 -139 -12 -139 -25 0 -108 34 -108 44 0 24 19 39 40 33 21 -5 21 -4 18 104 l-3 109 45 -1 c25 0 39 -3 33 -6z m617 -35 c-1 -34 -3 -39 -11 -25 -8 13 -24 17 -77 17 l-67 0 52 -35 c64 -43 83 -69 83 -116 0 -29 -7 -43 -31 -63 -49 -42 -110 -36 -207 21 -2 1 11 15 29 31 33 30 33 30 44 8 14 -27 82 -30 98 -4 15 22 -7 47 -100 110 -40 27 -73 51 -73 54 0 3 5 14 10 25 10 17 22 19 130 19 l120 0 0 -42z m-1100 -63 c0 -24 -2 -25 -70 -25 -68 0 -70 1 -70 25 0 24 2 25 70 25 68 0 70 -1 70 -25z m1535 -380 c0 -20 -8 -20 -1524 -23 -938 -1 -1529 2 -1534 7 -5 5 -7 17 -4 25 6 15 153 16 1534 14 1520 -3 1528 -3 1528 -23z m-277 -182 l3 -23 -1235 0 -1236 0 0 25 0 25 1233 -2 1232 -3 3 -22z m-1514 -283 c65 -35 91 -118 67 -208 -10 -37 -19 -45 -63 -68 -46 -23 -61 -26 -130 -22 l-78 5 0 -44 0 -43 114 0 c92 0 115 3 120 15 12 33 26 12 26 -40 l0 -55 -180 0 -180 0 0 129 c0 141 0 141 64 141 18 0 37 -5 44 -12 16 -16 91 -15 130 2 37 17 46 36 37 84 -8 40 -22 46 -110 46 -70 0 -106 -18 -98 -50 9 -33 -12 -23 -61 32 -50 56 -57 73 -26 65 11 -3 20 -1 20 3 0 16 64 39 115 43 76 5 157 -4 189 -23z m751 20 c49 0 140 -86 150 -142 16 -87 6 -213 -19 -247 -42 -54 -80 -79 -138 -91 -59 -11 -139 -7 -184 10 -26 10 -61 43 -97 91 -25 34 -27 42 -27 140 0 96 2 108 26 145 47 73 133 110 228 98 16 -2 43 -4 61 -4z m-385 -10 c0 -5 -4 -10 -10 -10 -6 0 -10 -83 -10 -230 l0 -230 -43 0 c-42 0 -137 26 -147 40 -3 4 -10 9 -17 11 -8 3 -7 14 5 40 17 35 18 35 47 23 56 -24 55 -29 55 166 0 153 -2 180 -15 180 -8 0 -15 5 -15 10 0 6 32 10 75 10 43 0 75 -4 75 -10z m-462 -715 c38 -16 43 -52 13 -80 -19 -16 -21 -16 -50 4 -36 26 -106 28 -133 4 -25 -22 -23 -71 4 -100 26 -28 72 -30 122 -6 34 16 37 16 56 -2 41 -38 16 -67 -70 -81 -70 -11 -126 3 -170 45 -36 34 -40 43 -40 85 0 78 33 122 111 145 39 12 110 5 157 -14z m272 8 c42 -8 105 -70 113 -111 8 -41 -3 -69 -42 -110 -39 -40 -68 -52 -127 -52 -94 0 -164 57 -164 135 0 65 17 92 74 120 51 25 88 30 146 18z m349 -14 c66 -14 94 -50 99 -128 4 -65 -21 -115 -64 -131 -37 -14 -207 -13 -222 2 -13 13 -18 222 -6 252 7 19 114 22 193 5z m381 5 c19 -4 35 -15 40 -28 15 -40 3 -46 -96 -46 -76 0 -94 -3 -94 -15 0 -15 22 -23 80 -27 30 -3 35 -7 38 -30 3 -27 2 -28 -45 -28 -26 0 -54 -4 -62 -9 -28 -18 1 -31 69 -31 84 0 100 -6 100 -35 0 -33 -24 -38 -150 -30 l-110 8 0 133 c0 130 1 133 23 137 36 7 172 7 207 1z m-1202 -396 c7 -7 12 -20 12 -30 0 -15 9 -18 65 -18 43 0 65 4 65 12 0 32 70 64 93 42 3 -3 -11 -40 -32 -83 -52 -102 -69 -142 -73 -166 -2 -15 -12 -21 -39 -23 -39 -3 -49 5 -69 58 -7 19 -28 68 -47 108 -34 75 -38 93 -26 105 10 11 38 8 51 -5z m359 1 c6 -6 8 -30 5 -55 -4 -42 -3 -44 21 -44 30 0 50 18 73 65 14 31 21 35 55 35 21 0 41 -5 45 -11 3 -6 -7 -30 -24 -54 l-30 -43 26 -26 c32 -31 35 -85 7 -116 -16 -18 -30 -20 -139 -20 l-121 0 2 132 c2 93 7 134 15 140 18 11 52 10 65 -3z m517 -5 c10 -4 16 -18 16 -35 l0 -29 -90 0 c-83 0 -90 -1 -90 -20 0 -18 7 -20 60 -20 60 0 60 0 60 -29 0 -32 -19 -44 -68 -41 -44 3 -52 1 -52 -15 0 -11 18 -15 82 -17 80 -3 83 -4 92 -31 8 -22 7 -30 -4 -37 -17 -11 -145 -13 -215 -4 l-47 7 4 122 c2 84 7 127 17 138 11 14 33 17 116 17 57 0 110 -3 119 -6z m121 -34 c6 -29 9 -30 60 -30 48 0 56 3 75 30 22 30 62 41 75 20 4 -6 -12 -49 -34 -96 -23 -46 -41 -91 -41 -99 0 -7 -4 -17 -10 -20 -5 -3 -10 -15 -10 -25 0 -21 -32 -34 -70 -28 -18 2 -27 15 -40 59 -10 30 -34 89 -54 130 -20 40 -36 77 -36 81 0 5 18 8 39 8 36 0 40 -3 46 -30z"/>
 <path d="M5866 3144 c-19 -18 -19 -20 -6 -45 8 -14 21 -19 53 -19 46 0 67 13 67 42 0 36 -84 53 -114 22z"/>
 <path d="M6472 3237 c-29 -31 -30 -95 -1 -131 16 -20 29 -26 59 -26 49 0 80 35 80 90 0 54 -31 90 -79 90 -26 0 -44 -7 -59 -23z"/>
 <path d="M6967 3247 c-38 -27 -38 -107 -1 -148 23 -26 85 -25 109 1 9 10 20 39 22 64 5 38 2 48 -20 70 -29 29 -81 35 -110 13z"/>
 <path d="M7457 3248 c-23 -18 -38 -65 -31 -96 20 -85 122 -99 154 -23 16 40 5 96 -23 116 -26 18 -77 20 -100 3z"/>
 <path d="M6205 3160 c21 -22 40 -40 42 -40 2 0 3 18 3 40 l0 40 -42 0 -42 0 39 -40z"/>
 <path d="M7167 2268 c-13 -13 -31 -38 -40 -57 -19 -38 -23 -106 -7 -116 6 -3 10 -14 10 -23 1 -30 43 -69 88 -79 71 -18 149 17 167 76 11 35 7 128 -6 153 -28 52 -56 68 -124 68 -53 0 -68 -4 -88 -22z"/>
 <path d="M6637 1586 c-10 -8 -20 -30 -24 -49 -8 -53 21 -77 92 -77 52 0 57 2 75 33 26 41 25 61 -2 87 -26 24 -112 28 -141 6z"/>
 <path d="M7000 1515 l0 -65 49 0 c54 0 77 15 87 56 4 15 0 34 -10 49 -14 22 -24 25 -71 25 l-55 0 0 -65z"/>
 <path d="M6360 1125 c0 -8 5 -15 10 -15 6 0 10 7 10 15 0 8 -4 15 -10 15 -5 0 -10 -7 -10 -15z"/>
 <path d="M6656 1089 c-28 -17 -2 -29 62 -29 63 0 74 24 15 34 -50 8 -55 7 -77 -5z"/>
 <path d="M7340 1104 c0 -17 22 -14 28 4 2 7 -3 12 -12 12 -9 0 -16 -7 -16 -16z"/>
 </g>

</svg>