<!DOCTYPE svg PUBLIC "-//W3C//DTD SVG 20010904//EN" "http://www.w3.org/TR/2001/REC-SVG-20010904/DTD/svg10.dtd">
<svg version="1.0" xmlns="http://www.w3.org/2000/svg" width="600px" height="600px" viewBox="0 0 6000 6000" preserveAspectRatio="xMidYMid meet">
<g id="layer101" fill="#000000" stroke="none">
 <path d="M0 3000 l0 -3000 3000 0 3000 0 0 3000 0 3000 -3000 0 -3000 0 0 -3000z"/>
 </g>
<g id="layer102" fill="#ffffff" stroke="none">
 <path d="M0 3000 l0 -3000 3000 0 3000 0 0 3000 0 3000 -3000 0 -3000 0 0 -3000z m5390 0 l0 -1590 -2395 0 -2395 0 0 1590 0 1590 2395 0 2395 0 0 -1590z"/>
 <path d="M877 4313 c-4 -3 -7 -595 -7 -1315 l0 -1308 2125 0 2125 0 0 1315 0 1315 -2118 0 c-1165 0 -2122 -3 -2125 -7z m313 -218 c0 -10 -11 -15 -35 -15 l-35 0 0 -120 c0 -113 -1 -120 -20 -120 -19 0 -20 7 -20 135 l0 135 55 0 c42 0 55 -3 55 -15z m124 -1 c13 -12 16 -38 16 -119 0 -115 -9 -135 -60 -135 -51 0 -60 20 -60 135 0 115 9 135 60 135 16 0 36 -7 44 -16z m154 4 c6 -7 13 -30 17 -50 6 -34 5 -38 -13 -38 -16 0 -21 7 -24 33 -2 24 -8 32 -23 32 -19 0 -20 -7 -20 -100 0 -93 1 -100 20 -100 14 0 21 8 23 28 2 19 9 27 23 27 18 0 20 -4 14 -32 -10 -46 -23 -58 -61 -58 -51 0 -64 27 -64 135 0 108 13 135 64 135 19 0 38 -6 44 -12z m76 -13 c5 -20 13 -25 36 -25 25 0 30 4 30 25 0 19 5 25 21 25 17 0 20 -5 15 -27 -3 -16 -13 -76 -22 -135 l-17 -108 -28 0 c-16 0 -29 1 -29 3 0 1 -9 54 -20 117 -11 63 -20 123 -20 133 0 26 27 20 34 -8z m236 11 c0 -9 -12 -16 -32 -18 l-33 -3 -3 -117 c-2 -96 -5 -118 -17 -118 -13 0 -15 23 -15 135 l0 135 50 0 c37 0 50 -4 50 -14z m162 -103 c3 -114 4 -118 26 -121 12 -2 22 -10 22 -18 0 -11 -15 -14 -65 -14 -51 0 -65 3 -65 15 0 8 9 15 20 15 19 0 20 7 20 120 0 113 1 120 20 120 18 0 20 -8 22 -117z m178 102 c0 -10 -11 -15 -35 -15 -35 0 -35 0 -35 -45 0 -43 1 -45 30 -45 20 0 30 -5 30 -15 0 -10 -10 -15 -30 -15 -29 0 -30 -2 -30 -45 0 -45 0 -45 35 -45 24 0 35 -5 35 -15 0 -12 -13 -15 -60 -15 l-60 0 0 135 0 135 60 0 c47 0 60 -3 60 -15z m140 1 c0 -9 -12 -16 -32 -18 l-33 -3 -3 -117 c-2 -110 -4 -118 -22 -118 -19 0 -20 7 -20 135 l0 135 55 0 c41 0 55 -4 55 -14z m140 0 c0 -10 -13 -16 -37 -18 -37 -3 -38 -4 -38 -43 0 -36 3 -40 28 -43 15 -2 27 -9 27 -17 0 -8 -12 -15 -27 -17 -25 -3 -28 -7 -28 -43 0 -39 1 -40 38 -43 24 -2 37 -8 37 -18 0 -10 -14 -14 -55 -14 l-55 0 0 135 0 135 55 0 c41 0 55 -4 55 -14z m70 -36 c0 -41 3 -50 18 -50 10 0 28 -7 40 -16 18 -12 22 -25 22 -69 0 -69 -15 -85 -81 -85 l-49 0 0 135 0 135 25 0 c23 0 25 -3 25 -50z m150 -10 c0 -57 1 -60 25 -60 24 0 25 3 25 60 0 53 2 60 20 60 19 0 20 -7 20 -135 0 -128 -1 -135 -20 -135 -18 0 -20 7 -20 60 0 57 -1 60 -25 60 -24 0 -25 -3 -25 -60 0 -53 -2 -60 -20 -60 -19 0 -20 7 -20 135 0 128 1 135 20 135 18 0 20 -7 20 -60z m234 38 c12 -16 16 -47 16 -113 0 -108 -13 -135 -65 -135 -52 0 -65 27 -65 135 0 108 13 135 65 135 24 0 39 -7 49 -22z m76 -58 c0 -44 4 -80 9 -80 9 0 27 53 46 133 5 17 14 27 26 27 18 0 19 -9 19 -135 0 -113 -2 -135 -15 -135 -12 0 -15 13 -15 55 0 30 -4 55 -10 55 -5 0 -17 -25 -25 -55 -14 -47 -20 -55 -41 -55 l-24 0 0 135 c0 113 2 135 15 135 12 0 15 -16 15 -80z m220 28 c0 -29 11 -89 25 -133 14 -44 25 -81 25 -82 0 -2 -9 -3 -19 -3 -14 0 -21 9 -26 38 -3 20 -10 44 -15 52 -9 13 -11 13 -20 0 -5 -8 -12 -32 -15 -52 -5 -29 -12 -38 -26 -38 -24 0 -24 0 6 100 14 46 25 103 25 127 0 36 3 43 20 43 17 0 20 -7 20 -52z m434 27 c5 -20 13 -25 36 -25 25 0 30 4 30 25 0 19 5 25 21 25 17 0 20 -5 15 -27 -3 -16 -13 -76 -22 -135 l-17 -108 -28 0 c-16 0 -29 1 -29 3 0 1 -9 54 -20 117 -11 63 -20 123 -20 133 0 26 27 20 34 -8z m166 -45 c0 -38 4 -70 9 -70 5 0 17 26 26 58 23 83 23 82 45 82 19 0 20 -6 20 -135 0 -128 -1 -135 -20 -135 -18 0 -20 7 -20 68 -1 74 -9 69 -31 -15 -12 -48 -15 -53 -41 -53 l-28 0 0 135 c0 128 1 135 20 135 18 0 20 -7 20 -70z m210 28 c0 -44 48 -218 61 -218 7 0 14 34 24 130 14 129 14 131 43 128 23 -3 27 -8 30 -40 4 -50 20 -48 28 2 5 33 10 40 30 40 26 0 26 -2 44 -155 13 -114 13 -115 -4 -115 -14 0 -25 46 -27 110 0 19 -4 44 -8 55 -9 20 -10 17 -27 -120 -4 -35 -9 -45 -23 -45 -15 0 -19 11 -24 66 -8 103 -24 104 -34 0 l-6 -66 -43 0 -43 0 -16 55 c-9 31 -20 53 -25 50 -6 -4 -10 -12 -10 -18 0 -7 -5 -29 -11 -49 -7 -27 -15 -38 -29 -38 -11 0 -20 1 -20 3 0 1 11 38 25 82 14 44 25 104 25 133 0 45 3 52 20 52 17 0 20 -7 20 -42z m340 -18 c0 -57 1 -60 25 -60 24 0 25 3 25 60 0 53 2 60 20 60 19 0 20 -7 20 -135 0 -128 -1 -135 -20 -135 -18 0 -20 7 -20 60 0 57 -1 60 -25 60 -24 0 -25 -3 -25 -60 0 -53 -2 -60 -20 -60 -19 0 -20 7 -20 135 0 128 1 135 20 135 18 0 20 -7 20 -60z m240 46 c0 -10 -13 -16 -37 -18 -37 -3 -38 -4 -38 -43 0 -36 3 -40 28 -43 15 -2 27 -9 27 -17 0 -8 -12 -15 -27 -17 -25 -3 -28 -7 -28 -43 0 -39 1 -40 38 -43 24 -2 37 -8 37 -18 0 -10 -14 -14 -55 -14 l-55 0 0 135 0 135 55 0 c41 0 55 -4 55 -14z m70 -41 c0 -47 3 -55 19 -55 23 0 31 19 31 71 0 32 3 39 20 39 17 0 18 -5 13 -52 -3 -29 -10 -61 -14 -70 -6 -10 -5 -19 1 -23 5 -3 10 -28 10 -55 0 -57 -15 -70 -79 -70 l-41 0 0 135 c0 128 1 135 20 135 18 0 20 -7 20 -55z m230 40 c0 -10 -11 -15 -35 -15 -35 0 -35 0 -35 -45 0 -43 1 -45 30 -45 20 0 30 -5 30 -15 0 -10 -10 -15 -30 -15 -29 0 -30 -2 -30 -45 0 -45 0 -45 35 -45 24 0 35 -5 35 -15 0 -12 -13 -15 -55 -15 l-55 0 0 135 0 135 55 0 c42 0 55 -3 55 -15z m70 -5 c0 -13 -7 -20 -20 -20 -13 0 -20 7 -20 20 0 13 7 20 20 20 13 0 20 -7 20 -20z m-1550 -115 c0 -11 -11 -15 -40 -15 -29 0 -40 4 -40 15 0 11 11 15 40 15 29 0 40 -4 40 -15z m100 0 c0 -10 -11 -15 -35 -15 -24 0 -35 5 -35 15 0 10 11 15 35 15 24 0 35 -5 35 -15z m-1762 -289 c42 -20 79 -47 112 -83 83 -90 110 -195 110 -425 l0 -138 -129 0 -128 0 -5 164 c-4 138 -8 170 -24 198 -53 91 -207 90 -256 -2 -17 -32 -18 -70 -18 -590 0 -519 2 -558 19 -596 24 -53 74 -78 142 -72 104 10 129 54 137 241 l5 127 128 0 129 0 0 -102 c-1 -214 -32 -321 -119 -409 -84 -83 -142 -103 -301 -103 -108 0 -133 3 -184 23 -119 47 -202 158 -226 299 -7 46 -10 247 -8 627 3 557 3 560 26 624 45 123 115 194 231 233 44 14 81 17 176 15 108 -2 126 -6 183 -31z m963 14 c82 -25 155 -81 197 -150 69 -116 74 -180 70 -808 -4 -498 -5 -519 -26 -582 -56 -170 -175 -257 -367 -267 -235 -14 -381 80 -443 282 -13 41 -16 140 -19 580 -5 581 0 652 46 750 70 152 179 213 377 214 75 1 119 -4 165 -19z m729 -366 l0 -366 88 4 c103 5 144 24 175 83 20 37 22 61 28 320 4 154 10 290 14 303 7 21 11 22 147 22 l140 0 -7 -22 c-4 -13 -11 -153 -15 -313 -8 -315 -14 -350 -69 -437 -17 -26 -48 -57 -70 -70 -23 -13 -40 -26 -38 -29 1 -4 22 -22 47 -41 72 -54 108 -136 121 -276 15 -152 0 -332 -34 -406 -47 -102 -122 -159 -245 -185 -31 -6 -159 -11 -307 -11 l-255 0 0 895 0 895 140 0 140 0 0 -366z m1520 241 l0 -125 -240 0 -240 0 0 -265 0 -265 190 0 190 0 0 -125 0 -125 -190 0 -190 0 0 -255 0 -255 240 0 240 0 0 -125 0 -125 -380 0 -380 0 0 895 0 895 380 0 380 0 0 -125z"/>
 <path d="M1251 4061 c-16 -30 -14 -153 3 -177 26 -35 37 -4 34 96 -3 95 -15 122 -37 81z"/>
 <path d="M1554 4008 c3 -13 8 -41 11 -63 8 -47 19 -33 29 38 7 46 7 47 -19 47 -21 0 -25 -4 -21 -22z"/>
 <path d="M2470 3920 c0 -52 8 -60 34 -34 28 27 17 84 -15 84 -16 0 -19 -8 -19 -50z"/>
 <path d="M2785 4067 c-3 -7 -5 -54 -3 -103 3 -81 5 -89 23 -89 19 0 20 7 20 100 0 87 -2 100 -18 103 -9 2 -19 -3 -22 -11z"/>
 <path d="M3594 4008 c3 -13 8 -41 11 -63 8 -47 19 -32 28 38 6 45 6 47 -18 47 -21 0 -25 -4 -21 -22z"/>
 <path d="M4610 3916 c0 -49 5 -54 34 -33 26 19 18 71 -11 75 -21 3 -23 -1 -23 -42z"/>
 <path d="M2419 3454 c-15 -10 -35 -31 -45 -48 -18 -29 -19 -62 -19 -603 0 -562 0 -572 21 -600 62 -85 197 -81 249 7 19 34 20 53 23 565 4 581 1 613 -49 661 -25 24 -39 29 -92 31 -45 3 -69 -1 -88 -13z"/>
 <path d="M3390 2441 l0 -281 88 0 c103 0 146 17 177 70 18 31 20 52 20 205 0 152 -2 174 -20 204 -37 62 -65 76 -171 79 l-94 4 0 -281z"/>
 </g>

</svg>